<svg t="1649576820565" class="icon" viewBox="0 0 1024 1024" version="1.1" xmlns="http://www.w3.org/2000/svg" p-id="2233" width="200" height="200"><path d="M959.667298 800.651143l-33.843806-157.556409c-0.064468-0.224104 0-0.388856-0.029676-0.587378l-2.611477-10.637268c-1.434675-5.9055-5.15644-10.539031-9.918907-13.248745-4.767584-2.804882-10.638291-3.686972-16.416901-1.956561l-10.538007 3.067872c-0.164752 0.029676-0.328481 0.163729-0.557702 0.25992L729.110271 669.726278c-11.618619 3.362584-18.664082 15.634072-15.829524 27.412326l2.64627 8.879228c2.838651 11.743462 17.358343 15.370059 28.976962 12.006452l100.167351-32.18912c-2.316765 4.496407-4.728698 8.943696-7.227612 13.325493-50.845015 89.318258-137.646963 153.181775-238.125399 175.209464-94.868671 20.790512-225.597061 3.428076-307.410392-48.981574-81.779561-52.344159-137.517003-136.410809-158.308539-231.274364-3.551896-16.152888-19.510356-26.4013-35.668361-22.844288-16.152888 3.527336-26.400277 19.515473-22.809495 35.669384 24.178679 110.532419 89.252767 207.876468 184.510294 268.90031 95.257527 60.993143 242.041592 81.256652 352.540242 57.046251 116.955712-25.683962 218.022549-100.089579 277.32212-204.126051 0.652869-1.154289 1.288343-2.320858 1.932002-3.479241l18.071587 85.813434c2.870374 11.782348 14.618952 18.568914 26.237571 15.140839l8.384971-0.876973C956.17373 821.927725 962.502879 812.369022 959.667298 800.651143L959.667298 800.651143zM96.961844 395.962194l2.610454 10.654664c1.439792 5.90857 5.15644 10.525728 9.924024 13.252839 4.76349 2.787486 10.637268 3.669576 16.412808 1.957585l10.507308-3.086291c0.199545-0.029676 0.358157-0.177032 0.557702-0.2415l156.64055-49.751101c11.618619-3.393283 18.697851-15.634072 15.859199-27.41335l-2.871397-7.978718c-2.870374-11.747555-17.134239-16.300244-28.717042-12.906961l-100.582813 32.301683c5.130857-11.68411 10.870582-23.094998 17.173125-34.111912 50.90539-89.366354 136.895857-150.277632 237.309824-172.304298 94.863555-20.790512 225.595015-3.41068 307.374576 48.997947 81.814354 52.361555 138.299833 133.48927 159.121044 228.386594 3.558036 16.153912 19.48068 26.350135 35.668361 22.810518 11.294231-2.482541 19.709901-11.048637 22.485107-21.50478 1.206478-4.473895 1.404999-9.30083 0.323365-14.164604-24.213471-110.51093-90.030479-204.973348-185.288007-265.961374-95.291297-61.011562-242.045685-81.261769-352.543312-57.029878-116.891244 25.618471-217.210044 97.05036-276.470729 201.085808-4.179183 7.325849-8.151657 14.809287-11.908214 22.416546l-17.690918-84.010369c-2.905166-11.765975-13.900591-21.262256-25.51921-17.868973l-8.385994 0.916882c-11.618619 3.429099-18.697851 15.69547-15.859199 27.412326l33.805944 157.552316C96.996636 395.58664 96.896352 395.767765 96.961844 395.962194L96.961844 395.962194zM96.961844 395.962194" p-id="2234"></path></svg>
